<svg width="274" height="260" viewBox="0 0 274 260" fill="none" xmlns="http://www.w3.org/2000/svg">
  <g id="done">
    <rect width="274" height="260" fill="white"/>
      <g id="ALetter">
      <path id="AItem1" d="M46.9042 159.268C41.7407 161.457 42.4074 170.688 44.8457 175.08C50.1114 184.563 59.4575 188.849 71.0608 187.619C80.8893 186.578 86.3039 177.128 89.4054 169.627C91.9733 163.417 95.1664 155.012 98.056 148.862C100.661 143.316 101.628 139.939 104.299 134.407C111.659 119.162 116.15 102.957 123.552 87.7367C126.273 82.1414 130.817 74.1986 130.817 68" stroke="black" stroke-width="3" stroke-linecap="round"/>
      <path id="AItem2" d="M131.023 69.2394C131.023 75.9325 133.66 82.433 134.535 89.0851C136.227 101.954 134.535 115.052 134.535 128C134.535 147.15 128.844 173.305 128.844 192.227" stroke="black" stroke-width="3" stroke-linecap="round"/>
      <path id="AItem3" d="M133.58 150.283C133.58 142.63 115.813 135.348 108.638 133.409C96.5121 130.133 83.4949 130.902 83.0682 144.86C82.9267 149.491 83.9605 156.795 88.5829 159.525C93.3195 163.791 98.4595 164.909 102.793 165.515C108.638 165.515 115.424 165.384 119.755 165.515C132.49 165.901 154.954 168.218 162 155.412" stroke="black" stroke-width="3" stroke-linecap="round"/>
      </g>
      <g id="NLetter">
      <path id="NItem1" d="M168.47 151.779C168.47 159.616 168.344 167.253 167.673 174.975C166.716 185.978 156.178 185.398 148.226 188.048" stroke="black" stroke-width="3" stroke-linecap="round"/>
      <path id="NItem2" d="M168.5 151.5C171.301 155.702 176.282 165.563 177.935 170.523C179.111 174.05 181.124 177.172 182.153 180.645C182.7 182.491 184.271 184.563 184.495 186.361C184.809 188.872 184.495 181.301 184.495 178.77C184.495 173.569 184.108 168.202 184.589 163.025C185.313 155.244 190.439 145.878 194.57 139.268C196.501 136.179 198.374 133.684 200.943 131.114C203.85 128.207 205.992 128.282 209.846 127.319C225.123 123.499 231.73 142.611 231.73 155.153" stroke="black" stroke-width="3" stroke-linecap="round"/>
    </g>
  </g>
</svg>
