<svg data-v-74d642e2="" data-v-36e469e2="" width="126" height="32" viewBox="0 0 126 32" fill="none" xmlns="http://www.w3.org/2000/svg"><path data-v-74d642e2="" d="M7.5405 7.22704C7.4225 4.57043 9.5223 1.95911 12.2514 1.84741C15.4858 1.77798 18.7233 1.83232 21.9607 1.82024C23.8427 1.77194 25.6853 2.86779 26.5415 4.54024C27.0044 5.36137 27.0801 6.31533 27.1951 7.23005C28.3993 7.22401 29.667 7.27534 30.7199 7.93345C32.2872 8.82402 33.2433 10.6051 33.1889 12.3953C33.1768 16.7365 33.1979 21.0836 33.1768 25.4248C33.1919 27.9999 30.9045 30.3002 28.3206 30.2821C21.047 30.2942 13.7703 30.2821 6.49363 30.2851C4.61773 30.3123 2.80538 29.1651 2.00963 27.4746C1.53763 26.5568 1.50738 25.5002 1.51343 24.4919C1.54066 20.3682 1.50132 16.2444 1.53158 12.1236C1.53461 10.2278 2.75091 8.40741 4.49973 7.67081C5.44978 7.23307 6.51784 7.24817 7.5405 7.22704ZM10.2363 7.23307C14.9866 7.25118 19.7338 7.2542 24.4841 7.23005C24.478 5.8625 23.4705 4.4708 22.0031 4.52514C18.8473 4.51609 15.6886 4.48288 12.5358 4.54024C11.1259 4.56439 10.2242 5.92288 10.2363 7.23307Z" fill="#0062FF"></path> <path data-v-74d642e2="" d="M7.77649 15.5621C9.21064 15.541 10.6418 15.544 12.0759 15.5561C13.2953 17.0836 15.1137 18.1644 17.0985 18.2248C19.2648 18.3395 21.3223 17.2104 22.6505 15.55C24.0726 15.544 25.4946 15.544 26.9197 15.5561C25.6943 18.5116 23.0893 20.8723 19.9698 21.6663C16.1787 22.7017 11.8823 21.3161 9.41639 18.264C8.72957 17.455 8.23941 16.507 7.77649 15.5621Z" fill="white"></path> <path data-v-74d642e2="" d="M44.6845 9.33132H47.8795V6.64151H44.6845V9.33132ZM44.365 24.4341C46.6015 24.4341 47.7997 23.3582 47.7997 21.0071V10.5069H44.7644V20.768C44.7644 21.6646 44.325 22.0033 43.686 22.0033C43.4664 22.0033 43.2866 21.9834 43.047 21.9435V24.3146C43.4664 24.3943 43.8058 24.4341 44.365 24.4341Z" fill="#001444"></path> <path data-v-74d642e2="" d="M56.0234 21.4255C59.3582 21.4255 61.8344 18.9349 61.8344 15.8666C61.8344 12.7583 59.3782 10.3076 56.0633 10.3076C52.7284 10.3076 50.2523 12.7982 50.2523 15.8666C50.2523 18.9748 52.7085 21.4255 56.0234 21.4255ZM56.0633 18.8154C54.3859 18.8154 53.2476 17.4406 53.2476 15.8666C53.2476 14.2527 54.286 12.9177 56.0234 12.9177C57.7008 12.9177 58.839 14.2925 58.839 15.8666C58.839 17.4805 57.8006 18.8154 56.0633 18.8154Z" fill="#001444"></path> <path data-v-74d642e2="" d="M70.5235 21.3857C73.0596 21.3857 75.396 19.4331 75.396 15.8666C75.396 12.2602 73.0196 10.3076 70.5235 10.3076C68.9459 10.3076 67.9275 11.0448 67.1886 12.0411V6.64151H64.1533V21.1864H67.1886V19.7917C67.9075 20.6485 68.906 21.3857 70.5235 21.3857ZM69.7447 18.8154C68.3269 18.8154 67.1487 17.6398 67.1487 15.8666C67.1487 14.0534 68.3269 12.8779 69.7447 12.8779C71.1625 12.8779 72.3607 14.0534 72.3607 15.8267C72.3607 17.6598 71.1625 18.8154 69.7447 18.8154Z" fill="#001444"></path> <path data-v-74d642e2="" d="M79.722 21.1864H82.7573V15.229C82.7573 13.7944 83.4962 13.0572 84.6544 13.0572C85.8126 13.0572 86.4916 13.7944 86.4916 15.229V21.1864H89.5269V14.2726C89.5269 11.8219 88.1889 10.3076 85.8925 10.3076C84.3548 10.3076 83.4562 11.1245 82.7573 12.0211V6.64151H79.722V21.1864Z" fill="#8C97AB"></path> <path data-v-74d642e2="" d="M95.8393 21.3857C97.3769 21.3857 98.2755 20.5688 98.9745 19.6722V21.1864H102.01V10.5069H98.9745V16.4643C98.9745 17.8989 98.2356 18.6361 97.0774 18.6361C95.9192 18.6361 95.2402 17.8989 95.2402 16.4643V10.5069H92.2049V17.4207C92.2049 19.8714 93.5428 21.3857 95.8393 21.3857Z" fill="#8C97AB"></path> <path data-v-74d642e2="" d="M104.848 21.1864H107.883V15.229C107.883 13.7944 108.622 13.0572 109.78 13.0572C110.938 13.0572 111.617 13.7944 111.617 15.229V21.1864H114.652V14.2726C114.652 11.8219 113.315 10.3076 111.018 10.3076C109.48 10.3076 108.582 11.1245 107.883 12.0211V10.5069H104.848V21.1864Z" fill="#8C97AB"></path> <path data-v-74d642e2="" d="M121.025 21.3657C122.043 21.3657 122.782 21.1266 123.421 20.7481V18.3173C122.982 18.5564 122.483 18.6959 121.923 18.6959C121.244 18.6959 120.945 18.3571 120.945 17.6598V13.0971H123.461V10.5069H120.945V7.77721H117.91V10.5069H116.632V13.0971H117.91V18.1579C117.91 20.6285 119.168 21.3657 121.025 21.3657Z" fill="#8C97AB"></path> <path data-v-74d642e2="" d="M76.5721 30V26.7472L76.1693 26.6978C76.111 26.6851 76.0629 26.6649 76.0249 26.637C75.9894 26.6066 75.9717 26.5635 75.9717 26.5078V26.2H76.5721V25.8504C76.5721 25.63 76.6037 25.4337 76.6671 25.2614C76.7304 25.0891 76.8203 24.9435 76.9369 24.8244C77.0559 24.7028 77.1978 24.6116 77.3625 24.5508C77.5297 24.4875 77.7171 24.4558 77.9249 24.4558C78.0997 24.4558 78.2605 24.4811 78.4075 24.5318L78.3923 24.9042C78.3897 24.9371 78.3796 24.9625 78.3619 24.9802C78.3441 24.9954 78.3201 25.0068 78.2897 25.0144C78.2618 25.022 78.2263 25.0271 78.1833 25.0296C78.1427 25.0296 78.0984 25.0296 78.0503 25.0296C77.9363 25.0296 77.8324 25.0435 77.7387 25.0714C77.6449 25.0993 77.5651 25.1461 77.4993 25.212C77.4334 25.2779 77.3827 25.3653 77.3473 25.4742C77.3118 25.5806 77.2941 25.7136 77.2941 25.8732V26.2H78.3771V26.7396H77.3169V30H76.5721Z" fill="#8C97AB" class="animate-right"></path> <path data-v-74d642e2="" d="M80.5234 26.0784C80.8072 26.0784 81.063 26.1253 81.291 26.219C81.5216 26.3102 81.7166 26.4432 81.8762 26.618C82.0384 26.7903 82.1625 26.9993 82.2486 27.245C82.3348 27.4882 82.3778 27.7618 82.3778 28.0658C82.3778 28.3698 82.3348 28.6447 82.2486 28.8904C82.1625 29.1361 82.0384 29.3451 81.8762 29.5174C81.7166 29.6897 81.5216 29.8227 81.291 29.9164C81.063 30.0076 80.8072 30.0532 80.5234 30.0532C80.2372 30.0532 79.9788 30.0076 79.7482 29.9164C79.5202 29.8227 79.3252 29.6897 79.163 29.5174C79.0009 29.3451 78.8755 29.1361 78.7868 28.8904C78.7007 28.6447 78.6576 28.3698 78.6576 28.0658C78.6576 27.7618 78.7007 27.4882 78.7868 27.245C78.8755 26.9993 79.0009 26.7903 79.163 26.618C79.3252 26.4432 79.5202 26.3102 79.7482 26.219C79.9788 26.1253 80.2372 26.0784 80.5234 26.0784ZM80.5234 29.4756C80.8882 29.4756 81.1606 29.3527 81.3404 29.107C81.5203 28.8613 81.6102 28.5155 81.6102 28.0696C81.6102 27.6237 81.5203 27.2779 81.3404 27.0322C81.1606 26.7839 80.8882 26.6598 80.5234 26.6598C80.1536 26.6598 79.8774 26.7839 79.695 27.0322C79.5152 27.2779 79.4252 27.6237 79.4252 28.0696C79.4252 28.5155 79.5152 28.8613 79.695 29.107C79.8774 29.3527 80.1536 29.4756 80.5234 29.4756Z" fill="#8C97AB" class="animate-right"></path> <path data-v-74d642e2="" d="M83.9042 26.8802C84.0283 26.6269 84.1778 26.428 84.3526 26.2836C84.5274 26.1392 84.7376 26.067 84.9834 26.067C85.067 26.067 85.1455 26.0771 85.219 26.0974C85.295 26.1151 85.3608 26.143 85.4166 26.181L85.3672 26.7396C85.3494 26.808 85.3076 26.8422 85.2418 26.8422C85.2063 26.8422 85.1531 26.8359 85.0822 26.8232C85.0112 26.808 84.9352 26.8004 84.8542 26.8004C84.7351 26.8004 84.63 26.8181 84.5388 26.8536C84.4476 26.8865 84.3652 26.9372 84.2918 27.0056C84.2208 27.0715 84.1575 27.1538 84.1018 27.2526C84.046 27.3489 83.9941 27.4591 83.946 27.5832V30H83.205V26.1392H83.6306C83.7116 26.1392 83.7661 26.1544 83.794 26.1848C83.8244 26.2127 83.8459 26.2633 83.8586 26.3368L83.9042 26.8802Z" fill="#8C97AB" class="animate-right"></path> <path data-v-74d642e2="" d="M90.3046 27.6402C90.3046 27.4933 90.283 27.3577 90.24 27.2336C90.1994 27.1095 90.1386 27.0018 90.0576 26.9106C89.9765 26.8194 89.8777 26.7485 89.7612 26.6978C89.6446 26.6471 89.5104 26.6218 89.3584 26.6218C89.0468 26.6218 88.801 26.7117 88.6212 26.8916C88.4438 27.0715 88.3311 27.321 88.283 27.6402H90.3046ZM90.9164 29.449C90.8252 29.5554 90.72 29.6479 90.601 29.7264C90.4819 29.8024 90.3552 29.8645 90.221 29.9126C90.0867 29.9607 89.9474 29.9962 89.803 30.019C89.6611 30.0418 89.5205 30.0532 89.3812 30.0532C89.1152 30.0532 88.8682 30.0089 88.6402 29.9202C88.4147 29.829 88.2184 29.6973 88.0512 29.525C87.8865 29.3502 87.7573 29.1349 87.6636 28.879C87.5724 28.6206 87.5268 28.3242 87.5268 27.9898C87.5268 27.7213 87.5686 27.4717 87.6522 27.2412C87.7358 27.0081 87.8548 26.8055 88.0094 26.6332C88.1664 26.4609 88.3577 26.3254 88.5832 26.2266C88.8086 26.1278 89.062 26.0784 89.3432 26.0784C89.5788 26.0784 89.7954 26.1177 89.993 26.1962C90.1931 26.2722 90.3654 26.3837 90.5098 26.5306C90.6542 26.6775 90.7669 26.8587 90.848 27.074C90.9316 27.2893 90.9734 27.5351 90.9734 27.8112C90.9734 27.9252 90.9607 28.0025 90.9354 28.043C90.91 28.081 90.8632 28.1 90.7948 28.1H88.264C88.2716 28.3305 88.3045 28.5319 88.3628 28.7042C88.421 28.8739 88.5008 29.0158 88.6022 29.1298C88.706 29.2438 88.8289 29.3287 88.9708 29.3844C89.1126 29.4401 89.271 29.468 89.4458 29.468C89.6104 29.468 89.7523 29.449 89.8714 29.411C89.993 29.373 90.0968 29.3325 90.183 29.2894C90.2716 29.2438 90.3451 29.202 90.4034 29.164C90.4642 29.126 90.5174 29.107 90.563 29.107C90.6238 29.107 90.6706 29.1298 90.7036 29.1754L90.9164 29.449Z" fill="#8C97AB" class="animate-right"></path> <path data-v-74d642e2="" d="M91.7698 30V26.1392H92.2144C92.3183 26.1392 92.3829 26.1886 92.4082 26.2874L92.4614 26.656C92.6033 26.4863 92.7604 26.3482 92.9326 26.2418C93.1074 26.1329 93.3114 26.0784 93.5444 26.0784C93.8003 26.0784 94.008 26.1493 94.1676 26.2912C94.3272 26.4305 94.4438 26.6205 94.5172 26.8612C94.573 26.7244 94.6452 26.6066 94.7338 26.5078C94.8225 26.409 94.9213 26.3279 95.0302 26.2646C95.1392 26.2013 95.2544 26.1544 95.376 26.124C95.5002 26.0936 95.6256 26.0784 95.7522 26.0784C95.9574 26.0784 96.1398 26.1113 96.2994 26.1772C96.4616 26.2405 96.5984 26.3343 96.7098 26.4584C96.8213 26.5825 96.9062 26.7358 96.9644 26.9182C97.0227 27.1006 97.0518 27.3083 97.0518 27.5414V30H96.307V27.5414C96.307 27.2526 96.2437 27.0347 96.117 26.8878C95.9929 26.7409 95.8105 26.6674 95.5698 26.6674C95.4634 26.6674 95.3621 26.6864 95.2658 26.7244C95.1696 26.7599 95.0847 26.8143 95.0112 26.8878C94.9403 26.9613 94.8833 27.0525 94.8402 27.1614C94.7997 27.2703 94.7794 27.397 94.7794 27.5414V30H94.0346V27.5414C94.0346 27.2425 93.9751 27.0221 93.856 26.8802C93.737 26.7383 93.5622 26.6674 93.3316 26.6674C93.172 26.6674 93.0238 26.7092 92.887 26.7928C92.7502 26.8764 92.6248 26.9904 92.5108 27.1348V30H91.7698Z" fill="#8C97AB" class="animate-right"></path> <path data-v-74d642e2="" d="M98.7897 29.05C98.9113 29.2096 99.0418 29.3211 99.1811 29.3844C99.323 29.4477 99.4813 29.4794 99.6561 29.4794C99.9956 29.4794 100.258 29.3578 100.443 29.1146C100.63 28.8689 100.724 28.5117 100.724 28.043C100.724 27.7973 100.702 27.5883 100.659 27.416C100.619 27.2412 100.558 27.0993 100.477 26.9904C100.398 26.8789 100.301 26.7979 100.184 26.7472C100.068 26.694 99.9361 26.6674 99.7891 26.6674C99.5738 26.6674 99.3863 26.7155 99.2267 26.8118C99.0697 26.9081 98.924 27.0449 98.7897 27.2222V29.05ZM98.7517 26.7168C98.8328 26.6205 98.9189 26.5331 99.0101 26.4546C99.1039 26.3735 99.2039 26.3051 99.3103 26.2494C99.4167 26.1911 99.5295 26.1468 99.6485 26.1164C99.7701 26.0835 99.8993 26.067 100.036 26.067C100.257 26.067 100.455 26.1101 100.633 26.1962C100.813 26.2823 100.966 26.409 101.093 26.5762C101.219 26.7434 101.317 26.9499 101.385 27.1956C101.456 27.4413 101.492 27.7238 101.492 28.043C101.492 28.3293 101.452 28.5953 101.374 28.841C101.298 29.0842 101.188 29.2957 101.043 29.4756C100.901 29.6555 100.726 29.7973 100.519 29.9012C100.314 30.0025 100.082 30.0532 99.8233 30.0532C99.5928 30.0532 99.3952 30.0152 99.2305 29.9392C99.0659 29.8632 98.9189 29.7568 98.7897 29.62V31.2958H98.0487V26.1392H98.4933C98.5972 26.1392 98.6618 26.1886 98.6871 26.2874L98.7517 26.7168Z" fill="#8C97AB" class="animate-right"></path> <path data-v-74d642e2="" d="M103.084 24.3912V30H102.339V24.3912H103.084Z" fill="#8C97AB" class="animate-right"></path> <path data-v-74d642e2="" d="M105.787 26.0784C106.071 26.0784 106.327 26.1253 106.555 26.219C106.786 26.3102 106.981 26.4432 107.14 26.618C107.302 26.7903 107.427 26.9993 107.513 27.245C107.599 27.4882 107.642 27.7618 107.642 28.0658C107.642 28.3698 107.599 28.6447 107.513 28.8904C107.427 29.1361 107.302 29.3451 107.14 29.5174C106.981 29.6897 106.786 29.8227 106.555 29.9164C106.327 30.0076 106.071 30.0532 105.787 30.0532C105.501 30.0532 105.243 30.0076 105.012 29.9164C104.784 29.8227 104.589 29.6897 104.427 29.5174C104.265 29.3451 104.14 29.1361 104.051 28.8904C103.965 28.6447 103.922 28.3698 103.922 28.0658C103.922 27.7618 103.965 27.4882 104.051 27.245C104.14 26.9993 104.265 26.7903 104.427 26.618C104.589 26.4432 104.784 26.3102 105.012 26.219C105.243 26.1253 105.501 26.0784 105.787 26.0784ZM105.787 29.4756C106.152 29.4756 106.425 29.3527 106.604 29.107C106.784 28.8613 106.874 28.5155 106.874 28.0696C106.874 27.6237 106.784 27.2779 106.604 27.0322C106.425 26.7839 106.152 26.6598 105.787 26.6598C105.418 26.6598 105.141 26.7839 104.959 27.0322C104.779 27.2779 104.689 27.6237 104.689 28.0696C104.689 28.5155 104.779 28.8613 104.959 29.107C105.141 29.3527 105.418 29.4756 105.787 29.4756Z" fill="#8C97AB" class="animate-right"></path> <path data-v-74d642e2="" d="M111.717 26.1392L109.574 31.121C109.551 31.1767 109.521 31.2198 109.483 31.2502C109.445 31.2806 109.389 31.2958 109.316 31.2958H108.765L109.471 29.7568L107.887 26.1392H108.533C108.596 26.1392 108.646 26.1544 108.681 26.1848C108.717 26.2152 108.742 26.2494 108.757 26.2874L109.737 28.6054C109.758 28.6637 109.777 28.7232 109.794 28.784C109.815 28.8423 109.831 28.9005 109.844 28.9588C109.862 28.898 109.881 28.8385 109.901 28.7802C109.921 28.7194 109.943 28.6599 109.965 28.6016L110.912 26.2874C110.929 26.2443 110.957 26.2089 110.995 26.181C111.033 26.1531 111.076 26.1392 111.124 26.1392H111.717Z" fill="#8C97AB" class="animate-right"></path> <path data-v-74d642e2="" d="M114.73 27.6402C114.73 27.4933 114.708 27.3577 114.665 27.2336C114.625 27.1095 114.564 27.0018 114.483 26.9106C114.402 26.8194 114.303 26.7485 114.187 26.6978C114.07 26.6471 113.936 26.6218 113.784 26.6218C113.472 26.6218 113.226 26.7117 113.047 26.8916C112.869 27.0715 112.756 27.321 112.708 27.6402H114.73ZM115.342 29.449C115.251 29.5554 115.145 29.6479 115.026 29.7264C114.907 29.8024 114.781 29.8645 114.646 29.9126C114.512 29.9607 114.373 29.9962 114.228 30.019C114.086 30.0418 113.946 30.0532 113.807 30.0532C113.541 30.0532 113.294 30.0089 113.066 29.9202C112.84 29.829 112.644 29.6973 112.477 29.525C112.312 29.3502 112.183 29.1349 112.089 28.879C111.998 28.6206 111.952 28.3242 111.952 27.9898C111.952 27.7213 111.994 27.4717 112.078 27.2412C112.161 27.0081 112.28 26.8055 112.435 26.6332C112.592 26.4609 112.783 26.3254 113.009 26.2266C113.234 26.1278 113.487 26.0784 113.769 26.0784C114.004 26.0784 114.221 26.1177 114.418 26.1962C114.618 26.2722 114.791 26.3837 114.935 26.5306C115.08 26.6775 115.192 26.8587 115.273 27.074C115.357 27.2893 115.399 27.5351 115.399 27.8112C115.399 27.9252 115.386 28.0025 115.361 28.043C115.335 28.081 115.289 28.1 115.22 28.1H112.689C112.697 28.3305 112.73 28.5319 112.788 28.7042C112.846 28.8739 112.926 29.0158 113.028 29.1298C113.131 29.2438 113.254 29.3287 113.396 29.3844C113.538 29.4401 113.696 29.468 113.871 29.468C114.036 29.468 114.178 29.449 114.297 29.411C114.418 29.373 114.522 29.3325 114.608 29.2894C114.697 29.2438 114.77 29.202 114.829 29.164C114.89 29.126 114.943 29.107 114.988 29.107C115.049 29.107 115.096 29.1298 115.129 29.1754L115.342 29.449Z" fill="#8C97AB" class="animate-right"></path> <path data-v-74d642e2="" d="M118.753 27.6402C118.753 27.4933 118.731 27.3577 118.688 27.2336C118.647 27.1095 118.587 27.0018 118.506 26.9106C118.425 26.8194 118.326 26.7485 118.209 26.6978C118.093 26.6471 117.958 26.6218 117.806 26.6218C117.495 26.6218 117.249 26.7117 117.069 26.8916C116.892 27.0715 116.779 27.321 116.731 27.6402H118.753ZM119.364 29.449C119.273 29.5554 119.168 29.6479 119.049 29.7264C118.93 29.8024 118.803 29.8645 118.669 29.9126C118.535 29.9607 118.395 29.9962 118.251 30.019C118.109 30.0418 117.969 30.0532 117.829 30.0532C117.563 30.0532 117.316 30.0089 117.088 29.9202C116.863 29.829 116.666 29.6973 116.499 29.525C116.335 29.3502 116.205 29.1349 116.112 28.879C116.02 28.6206 115.975 28.3242 115.975 27.9898C115.975 27.7213 116.017 27.4717 116.1 27.2412C116.184 27.0081 116.303 26.8055 116.457 26.6332C116.614 26.4609 116.806 26.3254 117.031 26.2266C117.257 26.1278 117.51 26.0784 117.791 26.0784C118.027 26.0784 118.243 26.1177 118.441 26.1962C118.641 26.2722 118.813 26.3837 118.958 26.5306C119.102 26.6775 119.215 26.8587 119.296 27.074C119.38 27.2893 119.421 27.5351 119.421 27.8112C119.421 27.9252 119.409 28.0025 119.383 28.043C119.358 28.081 119.311 28.1 119.243 28.1H116.712C116.72 28.3305 116.753 28.5319 116.811 28.7042C116.869 28.8739 116.949 29.0158 117.05 29.1298C117.154 29.2438 117.277 29.3287 117.419 29.3844C117.561 29.4401 117.719 29.468 117.894 29.468C118.058 29.468 118.2 29.449 118.319 29.411C118.441 29.373 118.545 29.3325 118.631 29.2894C118.72 29.2438 118.793 29.202 118.851 29.164C118.912 29.126 118.965 29.107 119.011 29.107C119.072 29.107 119.119 29.1298 119.152 29.1754L119.364 29.449Z" fill="#8C97AB" class="animate-right"></path> <path data-v-74d642e2="" d="M122.494 26.8042C122.474 26.8371 122.452 26.8612 122.429 26.8764C122.407 26.8891 122.378 26.8954 122.342 26.8954C122.302 26.8954 122.256 26.8815 122.205 26.8536C122.157 26.8257 122.098 26.7953 122.027 26.7624C121.958 26.7295 121.877 26.6991 121.783 26.6712C121.69 26.6433 121.578 26.6294 121.449 26.6294C121.343 26.6294 121.245 26.6433 121.156 26.6712C121.07 26.6965 120.997 26.7333 120.936 26.7814C120.875 26.827 120.828 26.8827 120.795 26.9486C120.763 27.0119 120.746 27.0803 120.746 27.1538C120.746 27.2501 120.774 27.3299 120.83 27.3932C120.888 27.4565 120.963 27.511 121.054 27.5566C121.148 27.6022 121.253 27.644 121.369 27.682C121.488 27.7175 121.609 27.7555 121.73 27.796C121.854 27.8365 121.975 27.8834 122.091 27.9366C122.21 27.9873 122.315 28.0519 122.407 28.1304C122.5 28.2064 122.575 28.2989 122.631 28.4078C122.689 28.5167 122.718 28.6497 122.718 28.8068C122.718 28.9867 122.685 29.1539 122.619 29.3084C122.556 29.4604 122.461 29.5921 122.334 29.7036C122.21 29.8151 122.056 29.9025 121.871 29.9658C121.686 30.0291 121.474 30.0608 121.236 30.0608C120.97 30.0608 120.725 30.0165 120.499 29.9278C120.274 29.8391 120.085 29.7264 119.933 29.5896L120.108 29.3046C120.128 29.2691 120.153 29.2425 120.184 29.2248C120.214 29.2045 120.255 29.1944 120.305 29.1944C120.353 29.1944 120.403 29.2121 120.453 29.2476C120.504 29.2831 120.565 29.3223 120.636 29.3654C120.707 29.4059 120.793 29.4439 120.894 29.4794C120.996 29.5123 121.122 29.5288 121.274 29.5288C121.401 29.5288 121.511 29.5136 121.605 29.4832C121.699 29.4503 121.776 29.4072 121.837 29.354C121.9 29.2983 121.947 29.2349 121.977 29.164C122.008 29.0931 122.023 29.0183 122.023 28.9398C122.023 28.8385 121.994 28.7549 121.935 28.689C121.88 28.6206 121.805 28.5623 121.711 28.5142C121.62 28.4661 121.515 28.4243 121.396 28.3888C121.277 28.3533 121.155 28.3153 121.031 28.2748C120.907 28.2343 120.785 28.1874 120.666 28.1342C120.547 28.081 120.441 28.0139 120.347 27.9328C120.256 27.8517 120.181 27.7529 120.123 27.6364C120.067 27.5199 120.039 27.378 120.039 27.2108C120.039 27.0613 120.07 26.9182 120.13 26.7814C120.194 26.6446 120.284 26.5243 120.4 26.4204C120.519 26.3165 120.665 26.2342 120.837 26.1734C121.012 26.1101 121.211 26.0784 121.434 26.0784C121.69 26.0784 121.92 26.1189 122.125 26.2C122.333 26.2811 122.511 26.3925 122.657 26.5344L122.494 26.8042Z" fill="#8C97AB" class="animate-right"></path></svg>