 <svg
        width="81"
        height="52"
        viewBox="0 0 71 32"
        fill="none"
        xmlns="http://www.w3.org/2000/svg"
      >
        <g clip-path="url(#clip0_4152_5205)">
          <path
            class=""
            d="M14.7753 0H0V32.0339H14.7753V0Z"
            fill="#F1B747"
          ></path>
          <path
            class="letter letter--l"
            d="M27.5414 15.9492C27.5414 16.3329 27.5075 16.728 27.4511 17.1231H17.9019C18.1954 18.6017 19.1322 19.358 20.5319 19.358C21.5703 19.358 22.4282 18.9065 22.8571 18.1502H27.2705C26.3675 21.085 23.7601 22.9248 20.5319 22.9248C16.5135 22.9248 13.5449 19.9901 13.5449 16.062C13.5449 12.1227 16.491 9.22183 20.5319 9.22183C24.6631 9.21055 27.5414 12.1679 27.5414 15.9492ZM17.9696 14.6624H23.1731C22.7894 13.3756 21.8525 12.6871 20.5206 12.6871C19.2225 12.6871 18.3308 13.3869 17.9696 14.6624Z"
            fill="black"
          ></path>
          <path
            class="letter letter--e"
            d="M42.2713 14.6511V22.4959H37.8354V15.2607C37.8354 13.7594 37.271 13.0257 36.1535 13.0257C34.7764 13.0257 33.975 13.9852 33.975 15.6332V22.5072H29.5391V9.6395H32.6431L33.2526 10.9714C34.2121 9.89911 35.6343 9.26701 37.3048 9.26701C40.3073 9.25573 42.2713 11.3778 42.2713 14.6511Z"
            fill="black"
          ></path>
          <path
            class="letter letter--n"
            d="M53.5035 18.6131V22.496H50.4559C47.6115 22.496 45.8845 20.7577 45.8845 17.902V13.0483H43.5254V12.0099L49.282 5.86951H50.1963V9.62824H53.4245V13.0371H50.3092V17.1344C50.3092 18.06 50.8622 18.6131 51.7991 18.6131H53.5035Z"
            fill="black"
          ></path>
          <path
            class="letter letter--t"
            d="M69.1359 9.61693V22.4847H65.7158L65.332 21.5704C64.2823 22.4282 62.9504 22.9136 61.4491 22.9136C57.5098 22.9136 54.6992 20.0466 54.6992 16.0508C54.6992 12.0663 57.5098 9.23315 61.4491 9.23315C62.9617 9.23315 64.3162 9.74109 65.3772 10.6102L65.8287 9.61693H69.1359ZM64.9257 16.0621C64.9257 14.3915 63.7066 13.1386 62.0474 13.1386C60.3768 13.1386 59.1691 14.3915 59.1691 16.0621C59.1691 17.7439 60.3881 18.9968 62.0474 18.9968C63.7066 18.9968 64.9257 17.7439 64.9257 16.0621Z"
            fill="black"
          ></path>
          <path
            class="letter letter--a"
            d="M12.2128 18.613V22.4959H9.16518C6.32073 22.4959 4.59375 20.7576 4.59375 17.9019V13.0483L4.71791 5.47437H8.91686L9.02973 13.0483V17.1456C9.02973 18.0712 9.58282 18.6243 10.5197 18.6243H12.2128V18.613Z"
            fill="black"
          ></path>
          <path
            d="M69.1356 4.09741H60.5684V7.24662H62.205L64.835 8.81558L65.6477 7.24662H69.1356V4.09741Z"
            fill="black"
          ></path>
        </g>
        <defs>
          <clipPath id="clip0_4152_5205">
            <rect width="70.3887" height="32" fill="white"></rect>
          </clipPath>
        </defs>
      </svg>