<svg width="23" height="24" viewBox="0 0 23 24" fill="none" xmlns="http://www.w3.org/2000/svg">
<path d="M14.2502 1.02546e-06C12.6607 -0.000791296 11.1048 0.457574 9.76965 1.32007C8.43447 2.18256 7.37681 3.4124 6.724 4.8617C6.07118 6.31099 5.85102 7.91801 6.08984 9.4895C6.32867 11.061 7.01628 12.5301 8.07019 13.72L0.000244141 22.88L1.12024 23.88L9.17029 14.76C10.2057 15.5693 11.4195 16.1196 12.7106 16.365C14.0017 16.6104 15.3328 16.5437 16.5929 16.1707C17.853 15.7976 19.0058 15.1288 19.9552 14.2201C20.9046 13.3114 21.6232 12.1891 22.0511 10.9465C22.4791 9.70396 22.6041 8.37703 22.4155 7.07642C22.227 5.77581 21.7304 4.53915 20.9673 3.46924C20.2041 2.39933 19.1964 1.52711 18.0281 0.925416C16.8597 0.323719 15.5644 0.00991516 14.2502 0.0100108V1.02546e-06ZM14.2502 15C12.9152 15 11.6102 14.6041 10.5001 13.8624C9.39009 13.1207 8.52493 12.0665 8.01404 10.8331C7.50315 9.59973 7.36943 8.24248 7.62988 6.93311C7.89033 5.62373 8.53329 4.42106 9.47729 3.47705C10.4213 2.53305 11.624 1.89009 12.9333 1.62964C14.2427 1.36919 15.6 1.5029 16.8334 2.01379C18.0668 2.52469 19.121 3.38985 19.8627 4.49988C20.6044 5.60991 21.0002 6.91498 21.0002 8.25C21.0002 10.0402 20.2891 11.7571 19.0232 13.023C17.7573 14.2888 16.0405 15 14.2502 15Z" fill="#424242"/>
</svg>
